<?xml version="1.0" encoding="utf-8"?>
<!-- Generator: Adobe Illustrator 15.0.0, SVG Export Plug-In . SVG Version: 6.00 Build 0)  -->
<!DOCTYPE svg PUBLIC "-//W3C//DTD SVG 1.1//EN" "http://www.w3.org/Graphics/SVG/1.1/DTD/svg11.dtd">
<svg version="1.1" id="Layer_1" xmlns="http://www.w3.org/2000/svg" xmlns:xlink="http://www.w3.org/1999/xlink" x="0px" y="0px"
	 width="99.776px" height="26.608px" viewBox="0 0 99.776 26.608" enable-background="new 0 0 99.776 26.608" xml:space="preserve">
<g>
	<defs>
		<rect id="SVGID_1_" width="99.776" height="26.608"/>
	</defs>
	<clipPath id="SVGID_2_">
		<use xlink:href="#SVGID_1_"  overflow="visible"/>
	</clipPath>
	<path clip-path="url(#SVGID_2_)" fill="#FF0000" d="M12.814,12.817c0.49,0,0.72,0.171,0.72,0.688v5.108
		c0,2.408-1.555,4.676-6.768,4.676C1.555,23.29,0,21.022,0,18.614V7.996c0-2.409,1.554-4.676,6.766-4.676
		c5.213,0,6.768,2.267,6.768,4.676v1.149c0,0.486-0.173,0.716-0.661,0.716h-2.392c-0.519,0-0.719-0.23-0.719-0.716V8.686
		c0-1.436-1.009-2.151-2.938-2.151c-1.93,0-2.909,0.715-2.909,2.151v9.239c0,1.435,0.979,2.153,2.909,2.153
		c1.929,0,2.938-0.719,2.938-2.125v-1.921H6.94c-0.518,0-0.749-0.172-0.749-0.689v-1.837c0-0.517,0.231-0.688,0.749-0.688H12.814z"
		/>
	<path clip-path="url(#SVGID_2_)" fill="#FF0000" d="M16.103,7.996c0-2.41,1.787-4.676,6.998-4.676c5.213,0,6.997,2.266,6.997,4.676
		v10.618c0,2.409-1.784,4.675-6.997,4.675c-5.211,0-6.998-2.266-6.998-4.675V7.996z M26.211,8.684c0-1.435-1.18-2.149-3.11-2.149
		c-1.929,0-3.081,0.714-3.081,2.149v9.241c0,1.435,1.152,2.151,3.081,2.151c1.93,0,3.11-0.717,3.11-2.151V8.684z"/>
	<path clip-path="url(#SVGID_2_)" fill="#FF0000" d="M37.321,19.846h6.424c0.491,0,0.721,0.173,0.721,0.688v1.808
		c0,0.518-0.23,0.717-0.721,0.717h-9.704c-0.435,0-0.605-0.258-0.605-0.746V4.295c0-0.516,0.17-0.745,0.69-0.745h2.506
		c0.517,0,0.689,0.229,0.689,0.745V19.846z"/>
	<path clip-path="url(#SVGID_2_)" fill="#FF0000" d="M58.661,3.55c0.489,0,0.721,0.17,0.721,0.687v1.808
		c0,0.517-0.231,0.719-0.721,0.719h-7.343v4.647h6.853c0.519,0,0.722,0.171,0.722,0.689v1.835c0,0.516-0.203,0.718-0.722,0.718
		h-6.853v7.66c0,0.517-0.174,0.746-0.692,0.746h-2.505c-0.518,0-0.69-0.229-0.69-0.746V4.295c0-0.516,0.172-0.745,0.69-0.745H58.661
		z"/>
	<path clip-path="url(#SVGID_2_)" fill="#FF0000" d="M68.711,0.112c0.22-0.035,0.594,0.776,0.808,0.7
		c0.239-0.068,0.563-0.755,0.886-0.717c0.131,0.017,0.662,1.097,0.662,1.097c4.358,0.213,9.708,5.457,10.408,5.986
		c0.333,0.258,1.728,1.711,4.31,2.836c1.058,0.459,2.12,0.65,3.101,0.581c1.326-0.089,2.792-1.241,3.685-2.808
		c1.141-1.956,1.62-5.363,4.887-7.3c0.459-0.266,1.499-0.884,2.099-0.115c0.488,0.611,0.089,1.639-0.423,2.128
		c-0.309,0.301-0.889,0.612-1.984,1.133c-0.373,0.172-0.979,0.629-1.218,0.805c-1.171,0.899-2.021,2.921-2.968,5.135
		c0,0-0.402,1.089-2.179,2.265c-0.31,0.193-0.029,0.351,0.299,0.773c0.412,0.546,1.256,2.801,1.149,6.226
		c-0.023,0.595,0.229,0.867,0.501,1.359c0.482,0.859,1.435,0.67,1.409,1.795c-0.025,1.507,1.088,1.84,0.726,2.527
		c-0.255,0.512-0.169,1.005-0.164,1.497c0,0.252,0.133,0.618-0.39,0.59c-2.129-0.117-1.979-2.969-1.95-3.956
		c0.041-0.134-0.062-0.353-0.079-0.372c-0.1-0.073-1.429-1.101-1.518-1.194c-1.614-1.632-2.676-3.092-3.274-4.61
		c-0.39-1.007-0.797-2.003-1.482-2.627c-0.783-0.716-1.736-1.105-2.566-1.115c-5.926-0.03-7.145-2.623-8.765-3.91
		c-0.043-0.033-0.197-0.115-0.276-0.127c-0.088,0.012-0.168,0.114-0.223,0.157c-0.623,0.658-1.251,0.869-2.1,0.869
		c-1.998,0-4.151-1.745-4.533-1.356c-0.288,0.299-0.037,0.926-0.567,1.031c-0.771,0.152-1.568-0.605-1.508-1.247
		c0.115-1.152,1.301-1.486,2.335-1.596c0.858-0.094,1.55,0.134,1.712,0.159c0.485,0.065,0.563-0.513,0.485-0.885
		C69.917,5.42,69.54,5.337,69.145,5.22c-0.476-0.143-1.009,0.253-1.377,0.126c-0.412-0.143-0.441-0.359-0.795-0.665
		C66.53,4.3,66.019,4.197,66.019,3.65c0.005-0.495,0.611-0.544,0.795-1.006c0.082-0.22,0.052-0.467,0.131-0.601
		c0.214-0.383,0.596-0.362,0.908-0.668C68.28,0.957,68.492,0.146,68.711,0.112"/>
</g>
</svg>
